# xmcd
#
# Track frame offsets: 
#        150
#        15975
#        34946
#        51371
#        66708
#        86615
#        109500
#        125083
#        140405
#        157038
#        179112
#        192731
#        207173
#        237874
#        252483
#        269180
#        284598
#        300362
#
# Disc length: 4186 seconds
#
# Revision: 0
# Processed by: cddbd v1.5.2PL0 Copyright (c) Steve Scherf et al.
# Submitted via: ExactAudioCopyFreeDBPlugin 1.0
#
DISCID=1f105812
DTITLE=Ronnie Dyson - Love In All Flavors and The More You Do It
DYEAR=1977
DGENRE=Funk
TTITLE0=I Want To Be Where You Are
TTITLE1=Ain't Nothing Wrong
TTITLE2=Don't Be Afraid
TTITLE3=I Just Want To Be There
TTITLE4=No Way
TTITLE5=Sara Smile
TTITLE6=Just As You Are
TTITLE7=I Can't Believe That
TTITLE8=You're Number One
TTITLE9=A Song For You
TTITLE10=Close To You
TTITLE11=The More You Do It (The More I Like It Done To Me)
TTITLE12=You Set My Spirits Free
TTITLE13=You And Me
TTITLE14=Love Won't Let Me Wait
TTITLE15=Lovin' Feelin'
TTITLE16=Won't You Come Stay With Me
TTITLE17=Jive Talkin'
EXTD=
EXTT0=
EXTT1=
EXTT2=
EXTT3=
EXTT4=
EXTT5=
EXTT6=
EXTT7=
EXTT8=
EXTT9=
EXTT10=
EXTT11=
EXTT12=
EXTT13=
EXTT14=
EXTT15=
EXTT16=
EXTT17=
PLAYORDER=
